HIERARCHY
ROOT hips
{
  OFFSET 0 10.6860622 2.3727825e-15
  CHANNELS 6 Xposition Yposition Zposition Yrotation Xrotation Zrotation
  JOINT leftUpperLeg
  {
    OFFSET 0.6642549969 -0.9402397400000004 0
    CHANNELS 3 Yrotation Xrotation Zrotation
    JOINT leftLowerLeg
    {
      OFFSET 0 -3.997221335632195 0
      CHANNELS 3 Yrotation Xrotation Zrotation
      JOINT leftFoot
      {
        OFFSET -0.13777839790000004 -4.6145792000000005 -0.22186036399999998
        CHANNELS 3 Yrotation Xrotation Zrotation
        JOINT leftToes
        {
          OFFSET -0.03777410834999995 -0.9130806927000008 0.85230013
          CHANNELS 3 Yrotation Xrotation Zrotation
          End Site
          {
            OFFSET -0.03777410834999995 -0.9130806927000008 0.85230013
          }
        }
      }
    }
  }
  JOINT rightUpperLeg
  {
    OFFSET -0.6642778626 -0.9402397400000004 0
    CHANNELS 3 Yrotation Xrotation Zrotation
    JOINT rightLowerLeg
    {
      OFFSET 0 -3.997221452859387 0
      CHANNELS 3 Yrotation Xrotation Zrotation
      JOINT rightFoot
      {
        OFFSET 0.1377926176 -4.6145792000000005 -0.22185782299999995
        CHANNELS 3 Yrotation Xrotation Zrotation
        JOINT rightToes
        {
          OFFSET 0.037780746850000047 -0.9130806927000008 0.85230167
          CHANNELS 3 Yrotation Xrotation Zrotation
          End Site
          {
            OFFSET 0.037780746850000047 -0.9130806927000008 0.85230167
          }
        }
      }
    }
  }
  JOINT spine
  {
    OFFSET 0 0.13988381660000015 0
    CHANNELS 3 Yrotation Xrotation Zrotation
    JOINT chest
    {
      OFFSET 0 0.6191039003973773 0
      CHANNELS 3 Yrotation Xrotation Zrotation
      JOINT upperChest
      {
        OFFSET 0 0.9855186130586943 0
        CHANNELS 3 Yrotation Xrotation Zrotation
        JOINT leftShoulder
        {
          OFFSET 0.1807663869 1.5087829790000005 0
          CHANNELS 3 Yrotation Xrotation Zrotation
          JOINT leftUpperArm
          {
            OFFSET 0.5985063006419806 0 0
            CHANNELS 3 Yrotation Xrotation Zrotation
            JOINT leftLowerArm
            {
              OFFSET 2.2993332369501065 0 0
              CHANNELS 3 Yrotation Xrotation Zrotation
              JOINT leftHand
              {
                OFFSET 2.395047042602395 0 0
                CHANNELS 3 Yrotation Xrotation Zrotation
                JOINT leftIndexProximal
                {
                  OFFSET 0.5766295810000004 0.04556643899499946 0.17265095988184
                  CHANNELS 3 Yrotation Xrotation Zrotation
                  JOINT leftIndexIntermediate
                  {
                    OFFSET 0.2957229000000008 -0.019352197700001517 -0.007932640616999987
                    CHANNELS 3 Yrotation Xrotation Zrotation
                    JOINT leftIndexDistal
                    {
                      OFFSET 0.19008243099999922 -0.012484908149998475 -0.002786250786000012
                      CHANNELS 3 Yrotation Xrotation Zrotation
                      End Site
                      {
                        OFFSET 0.19008243099999922 -0.012484908149998475 -0.002786250786000012
                      }
                    }
                  }
                }
                JOINT leftMiddleProximal
                {
                  OFFSET 0.5834975091000001 0.0524350405149987 0.02204081888183999
                  CHANNELS 3 Yrotation Xrotation Zrotation
                  JOINT leftMiddleIntermediate
                  {
                    OFFSET 0.33880573540000003 -0.019871473270000717 -0.00000971183179999946
                    CHANNELS 3 Yrotation Xrotation Zrotation
                    JOINT leftMiddleDistal
                    {
                      OFFSET 0.20676022730000088 -0.012221336379999448 0.0001471936708000235
                      CHANNELS 3 Yrotation Xrotation Zrotation
                      End Site
                      {
                        OFFSET 0.20676022730000088 -0.012221336379999448 0.0001471936708000235
                      }
                    }
                  }
                }
                JOINT leftLittleProximal
                {
                  OFFSET 0.5344154683999995 -0.012880921405001189 -0.24414037221816004
                  CHANNELS 3 Yrotation Xrotation Zrotation
                  JOINT leftLittleIntermediate
                  {
                    OFFSET 0.21758961730000093 -0.011650919939999227 0.011893592810000034
                    CHANNELS 3 Yrotation Xrotation Zrotation
                    JOINT leftLittleDistal
                    {
                      OFFSET 0.1475273964999999 -0.008152365682999818 0.006001092492999946
                      CHANNELS 3 Yrotation Xrotation Zrotation
                      End Site
                      {
                        OFFSET 0.1475273964999999 -0.008152365682999818 0.006001092492999946
                      }
                    }
                  }
                }
                JOINT leftRingProximal
                {
                  OFFSET 0.5799399463000003 0.026911854694997794 -0.12150566991816003
                  CHANNELS 3 Yrotation Xrotation Zrotation
                  JOINT leftRingIntermediate
                  {
                    OFFSET 0.26167887460000006 -0.013480186499999602 0.010996293000000053
                    CHANNELS 3 Yrotation Xrotation Zrotation
                    JOINT leftRingDistal
                    {
                      OFFSET 0.17667108799999987 -0.008990287899999228 0.0055541023999999065
                      CHANNELS 3 Yrotation Xrotation Zrotation
                      End Site
                      {
                        OFFSET 0.17667108799999987 -0.008990287899999228 0.0055541023999999065
                      }
                    }
                  }
                }
                JOINT leftThumbProximal
                {
                  OFFSET 0.11018806699999972 -0.09448718900500053 0.17047963138184
                  CHANNELS 3 Yrotation Xrotation Zrotation
                  JOINT leftThumbIntermediate
                  {
                    OFFSET 0.31062601459999983 -0.08126270900000132 0.15443142000000007
                    CHANNELS 3 Yrotation Xrotation Zrotation
                    JOINT leftThumbDistal
                    {
                      OFFSET 0.21627175790000086 -0.08833193599999878 0.018771167799999988
                      CHANNELS 3 Yrotation Xrotation Zrotation
                      End Site
                      {
                        OFFSET 0.21627175790000086 -0.08833193599999878 0.018771167799999988
                      }
                    }
                  }
                }
              }
            }
          }
        }
        JOINT neck
        {
          OFFSET 0 1.5463305265074576 0
          CHANNELS 3 Yrotation Xrotation Zrotation
          JOINT head
          {
            OFFSET 0 0.8456443600000344 0
            CHANNELS 3 Yrotation Xrotation Zrotation
            JOINT leftEye
            {
              OFFSET 0.30408573140000006 0.5104519199999995 0.1276382305
              CHANNELS 3 Yrotation Xrotation Zrotation
              End Site
              {
                OFFSET 0.30408573140000006 0.5104519199999995 0.1276382305
              }
            }
            JOINT rightEye
            {
              OFFSET -0.30409491089999996 0.5104519199999995 0.1276379445
              CHANNELS 3 Yrotation Xrotation Zrotation
              End Site
              {
                OFFSET -0.30409491089999996 0.5104519199999995 0.1276379445
              }
            }
            JOINT jaw
            {
              OFFSET -3.155239131000001e-7 -0.11984121820000082 0.60178107
              CHANNELS 3 Yrotation Xrotation Zrotation
              End Site
              {
                OFFSET -3.155239131000001e-7 -0.11984121820000082 0.60178107
              }
            }
          }
        }
        JOINT rightShoulder
        {
          OFFSET -0.1807303465 1.5087829790000005 0
          CHANNELS 3 Yrotation Xrotation Zrotation
          JOINT rightUpperArm
          {
            OFFSET -0.5985063796536958 0 0
            CHANNELS 3 Yrotation Xrotation Zrotation
            JOINT rightLowerArm
            {
              OFFSET -2.2993322059002854 0 0
              CHANNELS 3 Yrotation Xrotation Zrotation
              JOINT rightHand
              {
                OFFSET -2.395045314457259 0 0
                CHANNELS 3 Yrotation Xrotation Zrotation
                JOINT rightIndexProximal
                {
                  OFFSET -0.5764487688300002 0.0441371204405987 0.17361932004999997
                  CHANNELS 3 Yrotation Xrotation Zrotation
                  JOINT rightIndexIntermediate
                  {
                    OFFSET -0.29573011380000047 -0.01934826376999843 -0.007698921482999974
                    CHANNELS 3 Yrotation Xrotation Zrotation
                    JOINT rightIndexDistal
                    {
                      OFFSET -0.19008373999999884 -0.012503266380000655 -0.0026365778999999897
                      CHANNELS 3 Yrotation Xrotation Zrotation
                      End Site
                      {
                        OFFSET -0.19008373999999884 -0.012503266380000655 -0.0026365778999999897
                      }
                    }
                  }
                }
                JOINT rightMiddleProximal
                {
                  OFFSET -0.5834852037300005 0.05211639405060153 0.02307162440000001
                  CHANNELS 3 Yrotation Xrotation Zrotation
                  JOINT rightMiddleIntermediate
                  {
                    OFFSET -0.33880114510000003 -0.019952774050000954 0.0002455003561999819
                    CHANNELS 3 Yrotation Xrotation Zrotation
                    JOINT rightMiddleDistal
                    {
                      OFFSET -0.20675694929999955 -0.012273788999999091 0.00030209124000002766
                      CHANNELS 3 Yrotation Xrotation Zrotation
                      End Site
                      {
                        OFFSET -0.20675694929999955 -0.012273788999999091 0.00030209124000002766
                      }
                    }
                  }
                }
                JOINT rightLittleProximal
                {
                  OFFSET -0.5346811737299992 -0.011214256288399227 -0.24363941305000003
                  CHANNELS 3 Yrotation Xrotation Zrotation
                  JOINT rightLittleIntermediate
                  {
                    OFFSET -0.21757715980000092 -0.011771559690000988 0.01201554387
                    CHANNELS 3 Yrotation Xrotation Zrotation
                    JOINT rightLittleDistal
                    {
                      OFFSET -0.1475201849000004 -0.00822055339600003 0.006082065407000015
                      CHANNELS 3 Yrotation Xrotation Zrotation
                      End Site
                      {
                        OFFSET -0.1475201849000004 -0.00822055339600003 0.006082065407000015
                      }
                    }
                  }
                }
                JOINT rightRingProximal
                {
                  OFFSET -0.5800810755299999 0.027657985680600072 -0.12066365025000003
                  CHANNELS 3 Yrotation Xrotation Zrotation
                  JOINT rightRingIntermediate
                  {
                    OFFSET -0.26166445029999974 -0.013623118409999302 0.011164098990000045
                    CHANNELS 3 Yrotation Xrotation Zrotation
                    JOINT rightRingDistal
                    {
                      OFFSET -0.17666387530000027 -0.009072900100000503 0.005668185599999959
                      CHANNELS 3 Yrotation Xrotation Zrotation
                      End Site
                      {
                        OFFSET -0.17666387530000027 -0.009072900100000503 0.005668185599999959
                      }
                    }
                  }
                }
                JOINT rightThumbProximal
                {
                  OFFSET -0.10997596379000074 -0.09577489355940072 0.16989765924999997
                  CHANNELS 3 Yrotation Xrotation Zrotation
                  JOINT rightThumbIntermediate
                  {
                    OFFSET -0.31036620999999986 -0.08229339117999834 0.15440884469999996
                    CHANNELS 3 Yrotation Xrotation Zrotation
                    JOINT rightThumbDistal
                    {
                      OFFSET -0.21631306399999906 -0.08825326400000111 0.018656797720000014
                      CHANNELS 3 Yrotation Xrotation Zrotation
                      End Site
                      {
                        OFFSET -0.21631306399999906 -0.08825326400000111 0.018656797720000014
                      }
                    }
                  }
                }
              }
            }
          }
        }
      }
    }
  }
}
MOTION
Frames: 6
Frame Time: 0.03333333333333333
-0.3603619825222587 -5.34965004048061 -4.018592119972036 0 -9.0055796417383 0 5.367608744675675 -5.884593474337258 8.39258277558516 -172.7613086545498 83.58341501359054 -168.2261079067955 26.248112459458387 54.4708942838359 31.256031091508785 0 0 0 -5.214811834427126 -6.736644043254742 -9.521305971543105 172.5798469932662 83.36841760998038 167.88984443197901 -25.246261698424107 54.581256370636204 -31.216805499000223 0 0 0 -0.2052686491979446 33.176782569556664 -0.21498351933070278 -0.4113193908586608 41.060645237567485 0.26825658553951565 0 0 0 -30.7269679783005 8.17470638474788 17.545455584750147 23.93147129973111 -48.3012882775185 -45.78014883939031 -119.21903113341985 44.05578833996983 7.024050206946778 -11.68062719951414 -36.98968815596539 2.9532718577790202 0 0 0 0 0 0 0 0 0 0 0 0 0 0 0 0 0 0 0 0 0 0 0 0 0 0 0 0 0 0 0 0 0 0 0 0 0 0 0 0 0 0 0 0 0 -0.002199897412616734 30.528380081538504 0.44547051647410796 -0.010857802197625336 -11.504551002790471 4.532311618788269 0 0 0 0 0 0 0 0 0 5.267847539708363 7.291242347080741 -7.055445823246551 -24.974645699628425 -48.559872953363325 87.40124070756116 71.75290282535886 -11.27195233466601 68.73901282868145 -44.58597344366808 -8.281176798010469 3.5343293529479256 0 0 0 0 0 0 0 0 0 0 0 0 0 0 0 0 0 0 0 0 0 0 0 0 0 0 0 0 0 0 0 0 0 0 0 0 0 0 0 0 0 0 0 0 0
-0.3603619825222587 -5.338685679413215 -4.003973329738536 0 -9.0055796417383 0 5.398043477340814 -5.689447290605157 8.401477366076163 -172.28443117726883 83.82565170139591 -167.74648727875615 26.248112459458387 54.4708942838359 31.256031091508785 0 0 0 -5.24910635463386 -6.541579187450098 -9.529984566601629 172.10216793225618 83.60981035750481 167.40925515925287 -25.246259185135248 54.581256370636204 -31.216802444950343 0 0 0 -0.2054926629404353 33.31005043612834 -0.21547868331822936 -0.40924164129431595 40.727547859738586 0.27141710192767937 0 0 0 -30.893088873669953 8.506433321333837 17.06070811597387 23.93147129973111 -48.3012882775185 -45.78014883939031 -119.21903113341985 44.05578833996983 7.024050206946778 -11.940811748132209 -36.669520656203275 2.980188199905345 0 0 0 0 0 0 0 0 0 0 0 0 0 0 0 0 0 0 0 0 0 0 0 0 0 0 0 0 0 0 0 0 0 0 0 0 0 0 0 0 0 0 0 0 0 -0.002199897412616734 30.528380081538504 0.44547051647410796 -0.010806613787530788 -11.337884426728756 4.532220169626373 0 0 0 0 0 0 0 0 0 5.680396138361338 7.630603550669084 -6.735482956921849 -25.066034573176886 -48.76162497687665 87.309205712889 71.50823461520501 -10.736407747287867 68.17980260366532 -43.86165713052401 -7.938723081044354 3.971322376547628 0 0 0 0 0 0 0 0 0 0 0 0 0 0 0 0 0 0 0 0 0 0 0 0 0 0 0 0 0 0 0 0 0 0 0 0 0 0 0 0 0 0 0 0 0
-0.3603619825222587 -5.327721318345819 -3.989354539505037 0 -9.0055796417383 0 5.4284984132674055 -5.494305976105444 8.410472658056769 -171.76857317842132 84.06739753465367 -167.22788705472425 26.248112459458387 54.4708942838359 31.256031091508785 0 0 0 -5.283417420210706 -6.346520014369037 -9.538777780906736 171.58695050067007 83.85072321674087 166.89112567276186 -25.24625667184686 54.58125047794826 -31.216801910650503 0 0 0 -0.20571838348680213 33.44331767305979 -0.2159752227304389 -0.4071983601294547 40.39445036690044 0.2745460532979337 0 0 0 -31.06219127854379 8.836755994415507 16.574561697683464 23.93147129973111 -48.3012882775185 -45.78014883939031 -119.21903113341985 44.05578833996983 7.024050206946778 -12.19973657239246 -36.34925502928673 3.0051883678285125 0 0 0 0 0 0 0 0 0 0 0 0 0 0 0 0 0 0 0 0 0 0 0 0 0 0 0 0 0 0 0 0 0 0 0 0 0 0 0 0 0 0 0 0 0 -0.002199897412616734 30.528380081538504 0.44547051647410796 -0.010755725893984481 -11.171217533538218 4.532128890205821 0 0 0 0 0 0 0 0 0 6.095185900231547 7.967665205796446 -6.412802481359827 -25.157299945199625 -48.96347285276446 87.2172892093959 71.25868824852171 -10.203236811028109 67.61923643887168 -43.13531046279827 -7.601773410758014 4.412294449009231 0 0 0 0 0 0 0 0 0 0 0 0 0 0 0 0 0 0 0 0 0 0 0 0 0 0 0 0 0 0 0 0 0 0 0 0 0 0 0 0 0 0 0 0 0
-0.3603619825222587 -5.305793401387841 -3.960117495822581 0 -9.0055796417383 0 5.4894826865434725 -5.103988600596405 8.428773987607512 -170.59932468849507 84.54939117440401 -166.0531572460036 26.248112459458387 54.4708942838359 31.256031091508785 0 0 0 -5.352102355744684 -5.9563650178449565 -9.556710740237833 170.42491091119538 84.3309189094385 165.72326727467808 -25.246261698424107 54.581256370636204 -31.216805499000223 0 0 0 -0.20617422854499884 33.70988187796931 -0.2169713588055283 -0.40320972904069907 39.727997361916195 0.2807149769379484 0 0 0 -31.40978782941308 9.493845891580708 15.596805325409791 23.93147129973111 -48.3012882775185 -45.78014883939031 -119.21903113341985 44.05578833996983 7.024050206946778 -12.714211589127542 -35.70812536757122 3.049560185998814 0 0 0 0 0 0 0 0 0 0 0 0 0 0 0 0 0 0 0 0 0 0 0 0 0 0 0 0 0 0 0 0 0 0 0 0 0 0 0 0 0 0 0 0 0 -0.002199897412616734 30.528380081538504 0.44547051647410796 -0.010655262097308174 -10.837854562818812 4.531946713943606 0 0 0 0 0 0 0 0 0 6.93256208640188 8.635555532195694 -5.758461879235122 -25.339518134897123 -49.36755487688953 87.03378518848467 70.74465327272198 -9.14354309567313 66.49299333616628 -41.671907257924026 -6.942643611083569 5.3088193173172495 0 0 0 0 0 0 0 0 0 0 0 0 0 0 0 0 0 0 0 0 0 0 0 0 0 0 0 0 0 0 0 0 0 0 0 0 0 0 0 0 0 0 0 0 0
-0.3603619825222587 -5.294829442908853 -3.9454988397852175 0 -9.0055796417383 0 5.52001027480259 -4.908816176567033 8.4380765719674 -169.9335005068385 84.78943500260081 -165.38459278431188 26.248112459458387 54.4708942838359 31.256031091508785 0 0 0 -5.386476450072417 -5.761275428069294 -9.56585169989266 169.7667222391299 84.57006731696806 165.06216923543272 -25.246263030883263 54.581256370636204 -31.216805499000223 0 0 0 -0.20640487469428012 33.84316804966469 -0.21747176997413234 -0.40126407385196183 39.394670634504955 0.2837554854486635 0 0 0 -31.588262540291396 9.820480872021273 15.10523103106459 23.93147129973111 -48.3012882775185 -45.78014883939031 -119.21903113341985 44.05578833996983 7.024050206946778 -12.969791368788362 -35.3873007121985 3.0689717257725913 0 0 0 0 0 0 0 0 0 0 0 0 0 0 0 0 0 0 0 0 0 0 0 0 0 0 0 0 0 0 0 0 0 0 0 0 0 0 0 0 0 0 0 0 0 -0.002199897412616734 30.528380081538504 0.44547051647410796 -0.010605173313976313 -10.671160912927292 4.5318558120695975 0 0 0 0 0 0 0 0 0 7.355105983698009 8.966243326495377 -5.426841651005189 -25.43044481872365 -49.569770939563924 86.94217217279211 70.48026426831068 -8.617376230564687 65.92738344209616 -40.93521667686613 -6.620848075736704 5.764077302600358 0 0 0 0 0 0 0 0 0 0 0 0 0 0 0 0 0 0 0 0 0 0 0 0 0 0 0 0 0 0 0 0 0 0 0 0 0 0 0 0 0 0 0 0 0
-0.3603619825222587 -5.283865484429864 -3.930880183747854 0 -9.0055796417383 0 5.550560873317821 -4.713648578750879 8.44748090226623 -169.2033873208114 85.0287403403415 -164.6517383860038 26.248112459458387 54.4708942838359 31.256031091508785 0 0 0 -5.420870004264155 -5.56619193115909 -9.575106325998634 169.0479024948498 84.8084598909046 164.34044195400384 -25.246264363342394 54.581262263325 -31.21680954577521 0 0 0 -0.20663730467736663 33.97645654269486 -0.21797361356219605 -0.39935041346499844 39.06134555358305 0.28676700231477564 0 0 0 -31.769757965732893 10.145591070461448 14.612133463588647 23.93147129973111 -48.3012882775185 -45.78014883939031 -119.21903113341985 44.05578833996983 7.024050206946778 -13.224229578853416 -35.06640772520454 3.086557830626151 0 0 0 0 0 0 0 0 0 0 0 0 0 0 0 0 0 0 0 0 0 0 0 0 0 0 0 0 0 0 0 0 0 0 0 0 0 0 0 0 0 0 0 0 0 -0.002199897412616734 30.528380081538504 0.44547051647410796 -0.01055538015916782 -10.504466554077412 4.531765502523766 0 0 0 0 0 0 0 0 0 7.779972566414095 9.294499576790582 -5.092453049931292 -25.52125037911334 -49.77208258162537 86.85067418979644 70.21099543690873 -8.093818001642106 65.3600901001126 -40.1964341241971 -6.304900430454856 6.223174365286905 0 0 0 0 0 0 0 0 0 0 0 0 0 0 0 0 0 0 0 0 0 0 0 0 0 0 0 0 0 0 0 0 0 0 0 0 0 0 0 0 0 0 0 0 0
